<svg width="190" height="190" viewBox="0 0 190 190" fill="none" xmlns="http://www.w3.org/2000/svg">
<path d="M188.75 89.7917C188.786 103.54 185.574 117.103 179.375 129.375C172.025 144.081 160.727 156.45 146.744 165.097C132.762 173.744 116.648 178.327 100.208 178.333C86.4597 178.369 72.897 175.157 60.625 168.958L1.25 188.75L21.0417 129.375C14.843 117.103 11.6308 103.54 11.6667 89.7917C11.673 73.3517 16.2564 57.2381 24.9033 43.2558C33.5503 29.2735 45.9193 17.9747 60.625 10.6251C72.897 4.42642 86.4597 1.21421 100.208 1.25005H105.417C127.129 2.44788 147.636 11.6121 163.012 26.9882C178.388 42.3642 187.552 62.8714 188.75 84.5834V89.7917Z" stroke="black" stroke-width="2" stroke-linecap="round" stroke-linejoin="round"/>
</svg>
