<svg width="24" height="26" viewBox="0 0 24 26" fill="none" xmlns="http://www.w3.org/2000/svg">
<path d="M8.67188 15.2363C8.67188 16.6079 9.66188 17.7137 10.8919 17.7137H13.4019C14.4719 17.7137 15.3419 16.7462 15.3419 15.5553C15.3419 14.2581 14.8119 13.8009 14.0219 13.5032L9.99187 12.0147C9.20187 11.717 8.67188 11.2598 8.67188 9.9626C8.67188 8.77176 9.54187 7.8042 10.6119 7.8042H13.1219C14.3519 7.8042 15.3419 8.90998 15.3419 10.2816" stroke="#171717" stroke-width="1.5" stroke-linecap="round" stroke-linejoin="round"/>
<path d="M12 6.37939V19.1384" stroke="#171717" stroke-width="1.5" stroke-linecap="round" stroke-linejoin="round"/>
<path d="M15 23.3915H9C4 23.3915 2 21.265 2 15.9488V9.56924C2 4.25297 4 2.12646 9 2.12646H15C20 2.12646 22 4.25297 22 9.56924V15.9488C22 21.265 20 23.3915 15 23.3915Z" stroke="#171717" stroke-width="1.5" stroke-linecap="round" stroke-linejoin="round"/>
</svg>
