<svg xmlns="http://www.w3.org/2000/svg" xmlns:xlink="http://www.w3.org/1999/xlink" width="500" zoomAndPan="magnify" viewBox="134.99 96.52 105.12 177.04" height="500" preserveAspectRatio="xMidYMid meet" version="1.0"><defs><g/></defs><g fill="#ad5173" fill-opacity="1"><g transform="translate(135.061328, 235.646872)"><g><path d="M 10.78125 37.921875 C 12.015625 37.921875 12.640625 36.46875 13.46875 35.84375 L 13.671875 35.640625 C 17.40625 31.28125 20.921875 26.9375 24.234375 22.375 C 30.65625 13.671875 36.671875 4.765625 41.859375 -4.5625 C 46 -11.609375 49.9375 -18.859375 53.25 -26.3125 C 56.140625 -32.9375 58.84375 -39.578125 61.125 -46.40625 C 61.53125 -47.65625 62.359375 -48.484375 63.609375 -49.3125 C 66.5 -51.171875 69.609375 -53.046875 72.9375 -54.703125 C 77.6875 -57.1875 82.671875 -59.25 87.84375 -61.328125 C 93.859375 -63.8125 96.75 -65.0625 101.9375 -66.5 C 102.96875 -66.921875 104.21875 -67.125 105.046875 -67.75 C 103.796875 -69.40625 102.140625 -70.03125 100.078125 -69.40625 C 93.859375 -67.75 93.03125 -67.75 86.8125 -65.265625 C 80.390625 -62.78125 74.171875 -59.671875 67.953125 -56.359375 L 64.84375 -54.703125 C 64.4375 -55.3125 64.640625 -55.9375 64.84375 -56.359375 L 67.953125 -65.890625 C 71.0625 -76.453125 73.34375 -87.21875 75 -98.40625 C 76.03125 -105.453125 76.65625 -112.703125 75.828125 -119.96875 C 75.625 -121.828125 75.421875 -123.484375 75 -125.34375 C 74.171875 -129.90625 71.484375 -133.421875 67.953125 -136.53125 C 65.46875 -138.609375 62.578125 -139.4375 59.25 -139.015625 C 55.53125 -138.40625 51.796875 -137.15625 48.28125 -135.5 C 41.4375 -132.1875 35.21875 -127.828125 29.421875 -122.859375 C 19.890625 -114.578125 12.21875 -104.84375 6.84375 -93.4375 C 2.6875 -84.734375 0.203125 -75.828125 0 -66.296875 C -0.203125 -63.1875 0 -60.296875 0.828125 -57.390625 C 2.078125 -53.046875 4.140625 -49.3125 7.671875 -46.609375 C 8.5 -46 9.328125 -45.375 10.359375 -45.578125 C 10.359375 -45.578125 10.15625 -45.578125 10.15625 -45.578125 L 9.53125 -46.203125 C 6.84375 -48.28125 5.171875 -50.96875 3.9375 -54.078125 C 2.6875 -57.390625 2.28125 -60.90625 2.484375 -64.640625 C 2.90625 -70.4375 4.140625 -76.25 6.015625 -82.046875 C 8.703125 -89.921875 12.84375 -97.171875 17.8125 -104.015625 C 24.859375 -113.125 32.734375 -121 42.265625 -127.21875 C 46.609375 -129.90625 50.96875 -132.390625 55.53125 -134.046875 C 58.640625 -135.09375 61.53125 -135.703125 64.84375 -135.5 C 67.125 -135.5 68.78125 -134.25 69.609375 -131.984375 C 70.65625 -129.703125 71.0625 -127.21875 71.484375 -124.734375 C 72.3125 -118.09375 71.890625 -111.46875 71.265625 -104.84375 C 70.234375 -96.96875 68.578125 -88.890625 66.5 -81.21875 C 63.8125 -70.4375 60.078125 -60.296875 56.359375 -49.9375 C 55.9375 -48.890625 55.109375 -47.859375 54.28125 -47.234375 C 52.625 -46 51.171875 -44.953125 49.71875 -43.71875 C 37.921875 -34.1875 27.34375 -23.40625 19.0625 -10.78125 C 12.84375 -1.25 8.078125 8.703125 5.59375 19.890625 C 4.96875 23.203125 4.5625 26.734375 4.5625 30.25 C 4.765625 31.703125 4.96875 32.9375 5.390625 34.390625 C 5.59375 35.015625 5.796875 35.84375 6.625 36.25 C 7.875 37.09375 9.109375 37.921875 10.78125 37.921875 Z M 8.90625 33.15625 C 8.078125 32.328125 8.078125 31.28125 8.078125 30.25 C 7.875 27.140625 8.28125 24.453125 8.90625 21.546875 C 10.5625 12.84375 13.875 4.765625 18.234375 -2.90625 C 23.625 -12.4375 30.25 -20.71875 37.921875 -28.390625 C 41.859375 -32.109375 46 -35.84375 50.140625 -39.359375 C 50.765625 -39.984375 51.375 -40.40625 52 -40.8125 C 52.21875 -40.8125 52.421875 -40.609375 52.421875 -40.609375 C 52.625 -40.609375 52.625 -40.40625 52.625 -40.40625 C 52.421875 -39.78125 52.21875 -38.953125 51.796875 -38.328125 C 46.828125 -25.484375 40.609375 -13.265625 33.359375 -1.453125 C 26.9375 9.328125 19.6875 19.6875 12.015625 29.625 C 11.1875 30.875 10.15625 32.328125 8.90625 33.15625 Z M 8.90625 33.15625 "/></g></g></g></svg>
