<svg xmlns="http://www.w3.org/2000/svg" xmlns:xlink="http://www.w3.org/1999/xlink" width="1080" zoomAndPan="magnify" viewBox="139.25 311.4 528.62 205.65" height="500" preserveAspectRatio="xMidYMid meet" version="1.0"><defs><g/></defs><g fill="#ad5173" fill-opacity="1"><g transform="translate(169.492949, 466.176412)"><g/></g></g><g fill="#ad5173" fill-opacity="1"><g transform="translate(202.088763, 466.176412)"><g/></g></g><g fill="#ad5173" fill-opacity="1"><g transform="translate(234.694159, 466.176412)"><g><path d="M 38.328125 2.046875 C 28.898438 2.046875 21.28125 -1.226562 15.46875 -7.78125 C 9.664062 -14.34375 6.765625 -24.390625 6.765625 -37.921875 C 6.765625 -43.929688 7.410156 -50.316406 8.703125 -57.078125 C 10.003906 -63.847656 12.019531 -70.476562 14.75 -76.96875 C 17.488281 -83.46875 20.90625 -89.347656 25 -94.609375 C 29.101562 -99.867188 33.957031 -104.070312 39.5625 -107.21875 C 45.164062 -110.363281 51.519531 -111.9375 58.625 -111.9375 C 64.363281 -111.9375 69.554688 -110.566406 74.203125 -107.828125 C 78.859375 -105.097656 82.582031 -100.789062 85.375 -94.90625 C 88.175781 -89.03125 89.578125 -81.3125 89.578125 -71.75 C 89.578125 -65.875 88.925781 -59.585938 87.625 -52.890625 C 86.332031 -46.191406 84.351562 -39.597656 81.6875 -33.109375 C 79.019531 -26.617188 75.671875 -20.707031 71.640625 -15.375 C 67.609375 -10.039062 62.828125 -5.800781 57.296875 -2.65625 C 51.765625 0.476562 45.441406 2.046875 38.328125 2.046875 Z M 39.15625 0 C 44.625 0 49.441406 -2.457031 53.609375 -7.375 C 57.773438 -12.300781 61.289062 -18.691406 64.15625 -26.546875 C 67.03125 -34.398438 69.1875 -42.941406 70.625 -52.171875 C 72.0625 -61.398438 72.78125 -70.316406 72.78125 -78.921875 C 72.78125 -89.441406 71.515625 -97.226562 68.984375 -102.28125 C 66.453125 -107.34375 62.59375 -109.875 57.40625 -109.875 C 52.207031 -109.875 47.523438 -107.484375 43.359375 -102.703125 C 39.191406 -97.921875 35.640625 -91.597656 32.703125 -83.734375 C 29.765625 -75.878906 27.472656 -67.269531 25.828125 -57.90625 C 24.191406 -48.550781 23.375 -39.296875 23.375 -30.140625 C 23.375 -19.066406 24.738281 -11.273438 27.46875 -6.765625 C 30.195312 -2.253906 34.09375 0 39.15625 0 Z M 39.15625 0 "/></g></g></g><g fill="#ad5173" fill-opacity="1"><g transform="translate(317.51621, 466.176412)"><g><path d="M 77.078125 2.046875 C 70.648438 2.046875 66.410156 0.40625 64.359375 -2.875 C 62.316406 -6.15625 61.296875 -10.117188 61.296875 -14.765625 C 61.296875 -16.671875 61.429688 -19.226562 61.703125 -22.4375 C 61.972656 -25.65625 62.382812 -28.628906 62.9375 -31.359375 L 62.3125 -31.359375 C 58.21875 -19.742188 53.300781 -11.304688 47.5625 -6.046875 C 41.820312 -0.785156 35.535156 1.84375 28.703125 1.84375 C 22.003906 1.84375 17.351562 -0.171875 14.75 -4.203125 C 12.15625 -8.234375 10.859375 -13.1875 10.859375 -19.0625 C 10.859375 -22.613281 11.300781 -26.914062 12.1875 -31.96875 C 13.082031 -37.03125 13.941406 -41.546875 14.765625 -45.515625 L 23.375 -87.125 C 23.914062 -90.539062 24.457031 -93.648438 25 -96.453125 C 25.550781 -99.253906 25.828125 -101.269531 25.828125 -102.5 C 25.828125 -104.550781 25.347656 -105.953125 24.390625 -106.703125 C 23.429688 -107.453125 21.242188 -107.828125 17.828125 -107.828125 L 14.34375 -107.828125 L 14.96875 -109.875 L 46.125 -109.875 L 31.984375 -41.609375 C 31.023438 -37.378906 30.171875 -32.835938 29.421875 -27.984375 C 28.671875 -23.128906 28.296875 -19.269531 28.296875 -16.40625 C 28.296875 -11.757812 28.941406 -8.410156 30.234375 -6.359375 C 31.535156 -4.304688 33.484375 -3.28125 36.078125 -3.28125 C 39.492188 -3.28125 42.671875 -4.578125 45.609375 -7.171875 C 48.546875 -9.765625 51.242188 -13.144531 53.703125 -17.3125 C 56.171875 -21.488281 58.222656 -25.863281 59.859375 -30.4375 C 61.492188 -35.019531 62.722656 -39.359375 63.546875 -43.453125 L 77.28125 -109.875 L 95.125 -109.875 L 79.953125 -35.671875 C 79.128906 -31.566406 78.441406 -27.429688 77.890625 -23.265625 C 77.347656 -19.097656 77.078125 -15.441406 77.078125 -12.296875 C 77.078125 -8.878906 77.414062 -6.210938 78.09375 -4.296875 C 78.78125 -2.390625 80.285156 -1.4375 82.609375 -1.4375 C 84.929688 -1.4375 87.117188 -2.289062 89.171875 -4 C 91.222656 -5.707031 93.207031 -7.789062 95.125 -10.25 L 96.34375 -8.8125 C 94.019531 -5.8125 91.421875 -3.25 88.546875 -1.125 C 85.679688 0.988281 81.859375 2.046875 77.078125 2.046875 Z M 77.078125 2.046875 "/></g></g></g><g fill="#ad5173" fill-opacity="1"><g transform="translate(405.053384, 466.176412)"><g><path d="M 26.4375 1.84375 L 17.21875 -96.140625 C 16.675781 -101.335938 15.890625 -104.582031 14.859375 -105.875 C 13.835938 -107.175781 11.753906 -107.828125 8.609375 -107.828125 L 6.765625 -107.828125 L 7.171875 -109.875 L 33 -109.875 L 38.953125 -43.046875 C 39.359375 -37.304688 39.800781 -31.257812 40.28125 -24.90625 C 40.757812 -18.550781 41.132812 -12.640625 41.40625 -7.171875 L 42.03125 -7.171875 C 52.957031 -22.347656 61.703125 -36.222656 68.265625 -48.796875 C 74.828125 -61.367188 78.109375 -73.734375 78.109375 -85.890625 C 78.109375 -96.421875 74.144531 -101.6875 66.21875 -101.6875 C 66.21875 -104.6875 67.070312 -107.144531 68.78125 -109.0625 C 70.488281 -110.976562 72.707031 -111.9375 75.4375 -111.9375 C 78.175781 -111.9375 80.46875 -110.632812 82.3125 -108.03125 C 84.15625 -105.4375 85.078125 -101.335938 85.078125 -95.734375 C 85.078125 -85.753906 82.921875 -75.535156 78.609375 -65.078125 C 74.304688 -54.628906 68.671875 -44.003906 61.703125 -33.203125 C 54.734375 -22.410156 47.148438 -11.410156 38.953125 -0.203125 Z M 26.4375 1.84375 "/></g></g></g><g fill="#ad5173" fill-opacity="1"><g transform="translate(479.675234, 466.176412)"><g><path d="M 41 -134.484375 C 38.40625 -134.484375 36.179688 -135.164062 34.328125 -136.53125 C 32.484375 -137.894531 31.5625 -140.082031 31.5625 -143.09375 C 31.5625 -146.914062 32.789062 -149.816406 35.25 -151.796875 C 37.71875 -153.785156 40.59375 -154.78125 43.875 -154.78125 C 46.46875 -154.78125 48.71875 -154.128906 50.625 -152.828125 C 52.539062 -151.523438 53.5 -149.304688 53.5 -146.171875 C 53.5 -142.335938 52.269531 -139.429688 49.8125 -137.453125 C 47.351562 -135.472656 44.414062 -134.484375 41 -134.484375 Z M 27.875 2.046875 C 16.664062 2.046875 11.0625 -4.03125 11.0625 -16.1875 C 11.0625 -21.519531 12.226562 -29.378906 14.5625 -39.765625 L 25.625 -93.484375 C 26.445312 -96.484375 26.859375 -99.285156 26.859375 -101.890625 C 26.859375 -103.929688 26.171875 -105.429688 24.796875 -106.390625 C 23.429688 -107.347656 20.769531 -107.828125 16.8125 -107.828125 L 14.34375 -107.828125 L 14.765625 -109.875 L 47.5625 -109.875 L 30.34375 -29.109375 C 29.382812 -25.003906 28.765625 -21.585938 28.484375 -18.859375 C 28.210938 -16.128906 28.078125 -13.804688 28.078125 -11.890625 C 28.078125 -8.878906 28.488281 -6.414062 29.3125 -4.5 C 30.132812 -2.59375 31.707031 -1.640625 34.03125 -1.640625 C 36.082031 -1.640625 38.203125 -2.523438 40.390625 -4.296875 C 42.578125 -6.078125 44.757812 -8.265625 46.9375 -10.859375 L 48.375 -9.21875 C 45.644531 -5.945312 42.742188 -3.25 39.671875 -1.125 C 36.597656 0.988281 32.664062 2.046875 27.875 2.046875 Z M 27.875 2.046875 "/></g></g></g><g fill="#ad5173" fill-opacity="1"><g transform="translate(519.036195, 466.176412)"><g><path d="M 5.125 0 L 24.390625 -90.8125 C 25.347656 -95.050781 25.828125 -98.675781 25.828125 -101.6875 C 25.828125 -104.007812 25.175781 -105.613281 23.875 -106.5 C 22.582031 -107.382812 20.363281 -107.828125 17.21875 -107.828125 L 14.34375 -107.828125 L 14.765625 -109.875 L 44.6875 -109.875 L 39.5625 -79.75 L 40.1875 -79.75 C 43.738281 -90.8125 47.972656 -98.941406 52.890625 -104.140625 C 57.804688 -109.335938 63.679688 -111.9375 70.515625 -111.9375 C 75.578125 -111.9375 79.300781 -110.566406 81.6875 -107.828125 C 84.082031 -105.097656 85.28125 -101.613281 85.28125 -97.375 C 85.28125 -92.59375 83.8125 -89.039062 80.875 -86.71875 C 77.9375 -84.394531 74.347656 -83.234375 70.109375 -83.234375 C 70.242188 -85.421875 70.34375 -87.296875 70.40625 -88.859375 C 70.476562 -90.429688 70.515625 -91.90625 70.515625 -93.28125 C 70.515625 -98.882812 69.863281 -102.609375 68.5625 -104.453125 C 67.269531 -106.296875 65.597656 -107.21875 63.546875 -107.21875 C 59.992188 -107.21875 56.507812 -105.234375 53.09375 -101.265625 C 49.675781 -97.304688 46.53125 -91.941406 43.65625 -85.171875 C 40.789062 -78.410156 38.46875 -70.863281 36.6875 -62.53125 L 22.953125 0 Z M 5.125 0 "/></g></g></g><g fill="#ad5173" fill-opacity="1"><g transform="translate(586.277852, 466.176412)"><g><path d="M 39.765625 2.046875 C 29.796875 2.046875 21.800781 -1.300781 15.78125 -8 C 9.769531 -14.695312 6.765625 -24.878906 6.765625 -38.546875 C 6.765625 -44.554688 7.445312 -50.941406 8.8125 -57.703125 C 10.175781 -64.472656 12.222656 -71.066406 14.953125 -77.484375 C 17.691406 -83.910156 21.144531 -89.71875 25.3125 -94.90625 C 29.476562 -100.101562 34.328125 -104.238281 39.859375 -107.3125 C 45.398438 -110.394531 51.722656 -111.9375 58.828125 -111.9375 C 66.078125 -111.9375 71.679688 -109.953125 75.640625 -105.984375 C 79.609375 -102.023438 81.59375 -96.421875 81.59375 -89.171875 C 81.59375 -81.109375 79.4375 -74.238281 75.125 -68.5625 C 70.820312 -62.894531 64.945312 -58.523438 57.5 -55.453125 C 50.050781 -52.378906 41.75 -50.84375 32.59375 -50.84375 L 25.21875 -50.84375 C 25.082031 -49.75 24.910156 -47.59375 24.703125 -44.375 C 24.492188 -41.164062 24.390625 -38.398438 24.390625 -36.078125 C 24.390625 -24.191406 25.992188 -15.238281 29.203125 -9.21875 C 32.421875 -3.207031 36.898438 -0.203125 42.640625 -0.203125 C 48.109375 -0.203125 52.789062 -2.695312 56.6875 -7.6875 C 60.582031 -12.675781 63.625 -18.789062 65.8125 -26.03125 C 66.488281 -25.757812 67.03125 -25.210938 67.4375 -24.390625 C 67.851562 -23.578125 68.0625 -22.144531 68.0625 -20.09375 C 68.0625 -16.945312 66.96875 -13.664062 64.78125 -10.25 C 62.59375 -6.832031 59.378906 -3.925781 55.140625 -1.53125 C 50.910156 0.851562 45.785156 2.046875 39.765625 2.046875 Z M 25.421875 -52.890625 L 30.34375 -52.890625 C 37.445312 -52.890625 43.59375 -54.769531 48.78125 -58.53125 C 53.976562 -62.289062 58.007812 -67.273438 60.875 -73.484375 C 63.75 -79.703125 65.1875 -86.570312 65.1875 -94.09375 C 65.1875 -99.695312 64.398438 -103.660156 62.828125 -105.984375 C 61.253906 -108.304688 58.757812 -109.46875 55.34375 -109.46875 C 48.507812 -109.46875 42.492188 -104.304688 37.296875 -93.984375 C 32.109375 -83.671875 28.148438 -69.972656 25.421875 -52.890625 Z M 25.421875 -52.890625 "/></g></g></g><g fill="#ad5173" fill-opacity="1"><g transform="translate(139.33772, 474.102952)"><g><path d="M 12.203125 42.9375 C 13.609375 42.9375 14.3125 41.296875 15.25 40.59375 L 15.484375 40.359375 C 19.703125 35.4375 23.703125 30.5 27.453125 25.34375 C 34.734375 15.484375 41.53125 5.390625 47.390625 -5.15625 C 52.09375 -13.140625 56.546875 -21.359375 60.296875 -29.796875 C 63.59375 -37.3125 66.640625 -44.8125 69.21875 -52.5625 C 69.6875 -53.96875 70.625 -54.90625 72.03125 -55.84375 C 75.3125 -57.953125 78.84375 -60.0625 82.59375 -61.9375 C 87.984375 -64.765625 93.625 -67.109375 99.484375 -69.453125 C 106.296875 -72.265625 109.578125 -73.671875 115.4375 -75.3125 C 116.609375 -75.78125 118.03125 -76.03125 118.96875 -76.734375 C 117.5625 -78.609375 115.671875 -79.3125 113.328125 -78.609375 C 106.296875 -76.734375 105.359375 -76.734375 98.3125 -73.90625 C 91.046875 -71.09375 84 -67.578125 76.96875 -63.828125 L 73.4375 -61.9375 C 72.96875 -62.65625 73.203125 -63.359375 73.4375 -63.828125 L 76.96875 -74.609375 C 80.484375 -86.578125 83.0625 -98.78125 84.9375 -111.453125 C 86.109375 -119.4375 86.8125 -127.640625 85.875 -135.859375 C 85.640625 -137.96875 85.40625 -139.84375 84.9375 -141.953125 C 84 -147.125 80.953125 -151.109375 76.96875 -154.625 C 74.140625 -156.96875 70.859375 -157.90625 67.109375 -157.4375 C 62.890625 -156.734375 58.65625 -155.328125 54.671875 -153.453125 C 46.921875 -149.703125 39.890625 -144.765625 33.3125 -139.140625 C 22.53125 -129.75 13.84375 -118.734375 7.75 -105.828125 C 3.046875 -95.96875 0.234375 -85.875 0 -75.078125 C -0.234375 -71.5625 0 -68.28125 0.9375 -65 C 2.34375 -60.0625 4.6875 -55.84375 8.6875 -52.796875 C 9.625 -52.09375 10.5625 -51.390625 11.734375 -51.625 C 11.734375 -51.625 11.5 -51.625 11.5 -51.625 L 10.796875 -52.328125 C 7.75 -54.671875 5.859375 -57.71875 4.453125 -61.234375 C 3.046875 -65 2.578125 -68.984375 2.8125 -73.203125 C 3.28125 -79.78125 4.6875 -86.34375 6.796875 -92.921875 C 9.859375 -101.828125 14.546875 -110.046875 20.171875 -117.796875 C 28.15625 -128.109375 37.078125 -137.03125 47.859375 -144.0625 C 52.796875 -147.125 57.71875 -149.9375 62.890625 -151.8125 C 66.40625 -152.984375 69.6875 -153.6875 73.4375 -153.453125 C 76.03125 -153.453125 77.90625 -152.046875 78.84375 -149.46875 C 80.015625 -146.890625 80.484375 -144.0625 80.953125 -141.25 C 81.890625 -133.75 81.421875 -126.234375 80.71875 -118.734375 C 79.546875 -109.8125 77.671875 -100.65625 75.3125 -91.984375 C 72.265625 -79.78125 68.046875 -68.28125 63.828125 -56.546875 C 63.359375 -55.375 62.421875 -54.203125 61.46875 -53.5 C 59.59375 -52.09375 57.953125 -50.921875 56.3125 -49.515625 C 42.9375 -38.71875 30.96875 -26.515625 21.59375 -12.203125 C 14.546875 -1.40625 9.15625 9.859375 6.328125 22.53125 C 5.625 26.28125 5.15625 30.265625 5.15625 34.25 C 5.390625 35.90625 5.625 37.3125 6.09375 38.953125 C 6.328125 39.65625 6.5625 40.59375 7.515625 41.0625 C 8.921875 42 10.328125 42.9375 12.203125 42.9375 Z M 10.09375 37.546875 C 9.15625 36.609375 9.15625 35.4375 9.15625 34.25 C 8.921875 30.734375 9.390625 27.6875 10.09375 24.40625 C 11.96875 14.546875 15.71875 5.390625 20.640625 -3.28125 C 26.75 -14.078125 34.25 -23.46875 42.9375 -32.140625 C 47.390625 -36.375 52.09375 -40.59375 56.78125 -44.578125 C 57.484375 -45.28125 58.1875 -45.75 58.890625 -46.21875 C 59.125 -46.21875 59.359375 -45.984375 59.359375 -45.984375 C 59.59375 -45.984375 59.59375 -45.75 59.59375 -45.75 C 59.359375 -45.046875 59.125 -44.109375 58.65625 -43.40625 C 53.03125 -28.859375 45.984375 -15.015625 37.78125 -1.640625 C 30.5 10.5625 22.296875 22.296875 13.609375 33.546875 C 12.671875 34.96875 11.5 36.609375 10.09375 37.546875 Z M 10.09375 37.546875 "/></g></g></g></svg>
