<?xml version="1.0" encoding="UTF-8"?>
<svg id="Layer_1" data-name="Layer 1" xmlns="http://www.w3.org/2000/svg" viewBox="0 0 327 268.65">
  <defs>
    <style>
      .cls-1 {
        fill: #ff477e;
        stroke-width: 0px;
      }
    </style>
  </defs>
  <path class="cls-1" d="M28.24,209.78c-4.24.28-7.18-1.86-9.84-4.47-4.39-4.31-8.74-8.67-13.07-13.05-7.11-7.19-7.12-14.03.03-21.19C50.06,126.38,94.78,81.7,139.5,37.02c10.59-10.58,21.16-21.19,31.77-31.75,7-6.96,13.3-7.03,20.3-.21,4.64,4.53,9.28,9.07,13.78,13.73,6,6.21,6.03,13.2-.09,19.34-55.67,55.77-111.38,111.5-167.09,167.23-2.78,2.79-5.93,4.87-9.93,4.41Z"/>
  <path class="cls-1" d="M58.95,240.09c-.33-3.8,1.46-6.76,4-9.3,26.61-26.63,53.2-53.28,79.9-79.81,5.88-5.84,12.55-5.75,18.53.19,24.69,24.55,49.3,49.17,73.84,73.87,5.31,5.34,5.43,12.46.35,17.92-5.1,5.48-10.41,10.79-15.92,15.86-5.91,5.44-12.62,4.86-18.98-1.43-13.03-12.88-25.97-25.85-38.93-38.79-9.69-9.68-9.77-9.69-19.33-.13-14.83,14.84-29.65,29.69-44.49,44.52-7.57,7.56-14.38,7.54-21.9,0-4.47-4.48-8.89-9.01-13.38-13.47-2.63-2.61-4.03-5.66-3.7-9.41Z"/>
  <path class="cls-1" d="M210.43,88.81c3.69-.39,6.5,1.22,8.95,3.67,34.5,34.48,69.03,68.94,103.47,103.48,5.64,5.66,5.48,12.81-.11,18.62-4.84,5.03-9.77,9.99-14.78,14.86-5.77,5.61-12.94,5.76-18.6.1-34.38-34.34-68.71-68.74-102.98-103.18-6.01-6.04-5.98-12.75-.07-18.97,4.82-5.06,9.86-9.91,14.82-14.82,2.58-2.56,5.55-4.25,9.31-3.76Z"/>
</svg>