<svg width="250" height="250" viewBox="0 0 250 250" fill="none" xmlns="http://www.w3.org/2000/svg">
<path d="M171.52 78.1249C162.947 44.1353 145.333 20.8333 124.999 20.8333C96.2389 20.8333 72.916 67.4687 72.916 125C72.916 182.531 96.2389 229.167 124.999 229.167C128.562 229.167 132.051 228.448 135.416 227.083" stroke="black" stroke-width="2" stroke-linecap="round" stroke-linejoin="round"/>
<path d="M158.271 142.781L198.001 162.156L178.626 201.885" stroke="black" stroke-width="2" stroke-linecap="round" stroke-linejoin="round"/>
<path d="M197.917 162.188C179.126 171.406 153.396 177.083 125.001 177.083C67.4694 177.083 20.834 153.76 20.834 125C20.834 96.2397 67.4694 72.9167 125.001 72.9167C175.396 72.9167 217.428 90.8126 227.084 114.583" stroke="black" stroke-width="2" stroke-linecap="round" stroke-linejoin="round"/>
</svg>
